<svg xmlns="http://www.w3.org/2000/svg" width="22" height="19.8" viewBox="0 0 22 19.8">
  <path id="Path_481" data-name="Path 481" d="M10.5,17.15l3.98-2.28a1,1,0,0,0,0-1.74L10.5,10.85a1.006,1.006,0,0,0-1.5.87v4.55A1.007,1.007,0,0,0,10.5,17.15ZM21,6H13.41l2.94-2.94a.5.5,0,0,0-.71-.71L12,5.99,8.36,2.35a.5.5,0,0,0-.71.71L10.59,6H3A2,2,0,0,0,1,8V20a2.006,2.006,0,0,0,2,2H21a2.006,2.006,0,0,0,2-2V8A2,2,0,0,0,21,6ZM20,20H4a1,1,0,0,1-1-1V9A1,1,0,0,1,4,8H20a1,1,0,0,1,1,1V19A1,1,0,0,1,20,20Z" transform="translate(-1 -2.2)" fill="#404040"/>
</svg>
